<?xml version="1.0" encoding="UTF-8"?>
<svg version="1.1" xmlns="http://www.w3.org/2000/svg" width="437" height="279">
<path d="M0 0 C144.21 0 288.42 0 437 0 C437 92.07 437 184.14 437 279 C292.79 279 148.58 279 0 279 C0 186.93 0 94.86 0 0 Z " fill="#FDFEFE" transform="translate(0,0)"/>
<path d="M0 0 C2.20027635 0.00319843 4.39924962 -0.02057274 6.59936523 -0.0456543 C20.26222039 -0.10765598 31.41552743 2.23990422 42.09741211 11.17895508 C48.44081352 17.4867194 50.56653591 24.90714452 52.87084961 33.31567383 C53.01780273 32.70981445 53.16475586 32.10395508 53.31616211 31.47973633 C56.56976897 19.32545784 62.66077043 10.73185234 73.30834961 4.00317383 C82.23561753 -0.22553203 91.36354925 -0.04720347 101.05834961 0.00317383 C102.11889557 0.00540955 102.11889557 0.00540955 103.2008667 0.00769043 C115.62284679 0.05460414 127.64463362 1.09649247 139.87084961 3.31567383 C140.76916504 3.47616211 141.66748047 3.63665039 142.59301758 3.80200195 C146.29574316 4.46681098 149.99632968 5.14276198 153.69580078 5.82543945 C175.22481302 9.79236816 197.16073027 13.12694515 218.87084961 8.31567383 C219.9265918 8.0862207 220.98233398 7.85676758 222.07006836 7.62036133 C227.63919637 6.3188431 232.66151637 4.64324826 237.87084961 2.31567383 C238.86084961 2.31567383 239.85084961 2.31567383 240.87084961 2.31567383 C240.87084961 2.97567383 240.87084961 3.63567383 240.87084961 4.31567383 C245.16084961 3.98567383 249.45084961 3.65567383 253.87084961 3.31567383 C253.87084961 4.30567383 253.87084961 5.29567383 253.87084961 6.31567383 C253.18087891 6.52546875 252.4909082 6.73526367 251.7800293 6.95141602 C236.59540401 11.58275155 221.48438114 16.39208944 206.43334961 21.44067383 C186.34168147 28.17707032 186.34168147 28.17707032 176.68334961 31.25317383 C175.53104858 31.62176514 175.53104858 31.62176514 174.35546875 31.99780273 C169.90762826 33.40429104 165.4413627 34.73115637 160.95930481 36.02470398 C152.419164 38.49784338 144.01431993 41.25092478 135.62576294 44.19415283 C120.80826337 49.38759164 105.89886894 54.22524048 90.89086914 58.83764648 C89.82456017 59.16714294 89.82456017 59.16714294 88.73670959 59.5032959 C86.81959049 60.09513307 84.9010563 60.68238095 82.98242188 61.26928711 C79.96188285 62.20467238 79.96188285 62.20467238 77.61669922 63.4440918 C75.30803637 64.59664758 73.41275406 64.45689074 70.87084961 64.31567383 C70.80897461 65.34692383 70.74709961 66.37817383 70.68334961 67.44067383 C69.65930423 72.32458256 68.41005557 73.85690437 64.87084961 77.31567383 C60.73839477 79.45869908 57.05027532 79.64417911 52.43334961 79.69067383 C51.15588867 79.7190332 49.87842773 79.74739258 48.56225586 79.77661133 C43.55239659 79.1510416 40.57840219 77.02322641 37.05834961 73.50317383 C35.43642903 70.5154254 35.1934174 67.67037881 34.87084961 64.31567383 C33.58823242 64.0449707 32.30561523 63.77426758 30.98413086 63.49536133 C25.93306512 62.36897072 21.00431811 60.95809443 16.05834961 59.44067383 C15.10202637 59.14894287 14.14570313 58.85721191 13.16040039 58.55664062 C1.92829749 55.08726184 -9.21167121 51.33412528 -20.35107422 47.57983398 C-30.80104547 44.06081562 -41.27971116 40.71169105 -51.87753296 37.65953064 C-63.65521897 34.25224706 -75.25902158 30.34624724 -86.87915039 26.44067383 C-88.93634596 25.75158479 -90.99363729 25.06278157 -93.05102539 24.37426758 C-101.04009659 21.69965461 -109.02862289 19.023487 -117.01269531 16.33398438 C-118.87310614 15.70932539 -120.73353812 15.08472943 -122.59399414 14.46020508 C-123.84530121 14.03706528 -123.84530121 14.03706528 -125.12188721 13.6053772 C-132.37581421 11.17460947 -139.70322403 9.15219325 -147.12915039 7.31567383 C-147.45915039 5.99567383 -147.78915039 4.67567383 -148.12915039 3.31567383 C-144.16915039 3.31567383 -140.20915039 3.31567383 -136.12915039 3.31567383 C-136.12915039 2.65567383 -136.12915039 1.99567383 -136.12915039 1.31567383 C-135.12561523 1.73333008 -135.12561523 1.73333008 -134.10180664 2.15942383 C-104.40702675 13.70956161 -74.83223048 11.27086437 -44.23657227 4.76196289 C-29.56178616 1.65428112 -14.98776502 -0.04544297 0 0 Z " fill="#FBFDFD" transform="translate(158.129150390625,195.684326171875)"/>
<path d="M0 0 C1.65431713 1.53255939 3.29992837 3.07456051 4.9375 4.625 C6.28134766 5.87216797 6.28134766 5.87216797 7.65234375 7.14453125 C30.74918054 29.26955163 46.64202968 63.00440154 48.04760742 95.14257812 C48.42166428 112.57962507 47.86715019 129.07379195 41.9375 145.625 C37.4825 144.14 37.4825 144.14 32.9375 142.625 C33.7973203 136.31965113 33.7973203 136.31965113 34.42504883 133.20898438 C36.04791266 124.84963438 36.277098 116.69933393 36.25317383 108.21777344 C36.25002316 105.89209623 36.27352937 103.56770781 36.29882812 101.2421875 C36.36354292 86.05179675 33.80805397 72.72481265 27.9375 58.625 C27.14500527 56.41696369 26.35334022 54.20862943 25.5625 52 C17.83881993 32.05712329 0.81412776 13.39382687 -16.0625 0.625 C-16.83851563 0.02171875 -17.61453125 -0.5815625 -18.4140625 -1.203125 C-30.20419802 -9.95700489 -44.14772733 -15.89180047 -58.0625 -20.375 C-58.6915625 -20.58672852 -59.320625 -20.79845703 -59.96875 -21.01660156 C-81.29181217 -27.90945619 -108.76544342 -26.51190068 -130.0625 -20.375 C-131.15304688 -20.07464844 -132.24359375 -19.77429687 -133.3671875 -19.46484375 C-136.33089801 -18.55686347 -139.18125062 -17.51769445 -142.0625 -16.375 C-142.98192383 -16.01365967 -142.98192383 -16.01365967 -143.91992188 -15.64501953 C-177.2671425 -2.36306556 -201.50347405 24.34431326 -216.0625 56.625 C-218.50585165 62.50317419 -220.4102321 68.48217685 -222.0625 74.625 C-222.40023437 75.8315625 -222.73796875 77.038125 -223.0859375 78.28125 C-227.42802238 96.92433005 -226.44061642 117.4831231 -221.9375 135.9765625 C-221.0625 139.625 -221.0625 139.625 -221.0625 142.625 C-227.6875 145.625 -227.6875 145.625 -231.0625 145.625 C-231.18367188 145.00753906 -231.30484375 144.39007813 -231.4296875 143.75390625 C-232.26234536 139.54578153 -233.12014218 135.3580377 -234.125 131.1875 C-241.78309711 96.81408711 -233.05782724 58.99901737 -214.4230957 29.62304688 C-208.66955991 20.90122775 -201.97121766 11.51856882 -194.0625 4.625 C-193.4025 4.625 -192.7425 4.625 -192.0625 4.625 C-192.0625 3.965 -192.0625 3.305 -192.0625 2.625 C-142.68312713 -51.35493556 -51.71391806 -45.68741422 0 0 Z " fill="#419EC5" transform="translate(305.0625,47.375)"/>
<path d="M0 0 C2.20027635 0.00319843 4.39924962 -0.02057274 6.59936523 -0.0456543 C20.26222039 -0.10765598 31.41552743 2.23990422 42.09741211 11.17895508 C48.44081352 17.4867194 50.56653591 24.90714452 52.87084961 33.31567383 C53.01780273 32.70981445 53.16475586 32.10395508 53.31616211 31.47973633 C56.56976897 19.32545784 62.66077043 10.73185234 73.30834961 4.00317383 C82.23561753 -0.22553203 91.36354925 -0.04720347 101.05834961 0.00317383 C102.11889557 0.00540955 102.11889557 0.00540955 103.2008667 0.00769043 C115.62284679 0.05460414 127.64463362 1.09649247 139.87084961 3.31567383 C140.76916504 3.47616211 141.66748047 3.63665039 142.59301758 3.80200195 C146.29574316 4.46681098 149.99632968 5.14276198 153.69580078 5.82543945 C175.22481302 9.79236816 197.16073027 13.12694515 218.87084961 8.31567383 C219.9265918 8.0862207 220.98233398 7.85676758 222.07006836 7.62036133 C227.63919637 6.3188431 232.66151637 4.64324826 237.87084961 2.31567383 C238.86084961 2.31567383 239.85084961 2.31567383 240.87084961 2.31567383 C240.87084961 2.97567383 240.87084961 3.63567383 240.87084961 4.31567383 C232.99185105 7.33617083 225.09298043 9.91437525 216.93334961 12.06567383 C216.1414624 12.27603271 215.3495752 12.4863916 214.53369141 12.703125 C196.79360027 17.27704916 196.79360027 17.27704916 190.87084961 14.31567383 C188.7083682 14.27975963 186.54489833 14.2989179 184.38256836 14.34301758 C176.20582813 14.43068092 168.14375002 13.82887681 160.00537109 13.08886719 C157.64798624 12.87496506 155.28984372 12.67179025 152.93139648 12.4699707 C151.41767066 12.33712043 149.90399653 12.20367956 148.39038086 12.06958008 C147.69249954 12.00912003 146.99461823 11.94865997 146.27558899 11.8863678 C143.04945586 11.58955408 139.99418833 11.17349533 136.87084961 10.31567383 C126.1714547 9.20742448 115.36655682 9.161535 104.62084961 9.06567383 C103.36675293 9.04432373 102.11265625 9.02297363 100.82055664 9.00097656 C87.6331565 8.95331544 75.04573065 10.78162033 65.02709961 20.01489258 C61.59014595 23.76353077 59.61758163 27.5606811 57.87084961 32.31567383 C58.35811523 31.67500977 58.84538086 31.0343457 59.34741211 30.37426758 C67.10586651 20.90895321 76.73150799 15.50709509 88.87084961 13.31567383 C92.3397528 13.04252518 95.79092232 13.03532757 99.26928711 13.05004883 C100.27780731 13.04741028 101.28632751 13.04477173 102.32540894 13.04205322 C105.63234616 13.03821355 108.93894647 13.05093792 112.24584961 13.06567383 C113.9417926 13.06833252 113.9417926 13.06833252 115.67199707 13.07104492 C140.76545802 13.11687934 165.81060135 14.0935398 190.87084961 15.31567383 C190.87084961 15.64567383 190.87084961 15.97567383 190.87084961 16.31567383 C184.29126835 16.34129498 177.71170023 16.35865295 171.13208008 16.37060547 C168.89965331 16.37559503 166.66722975 16.38238905 164.43481445 16.39111328 C153.61080383 16.43231529 142.86786581 16.4728799 132.07788086 15.54931641 C125.86992629 15.09704688 119.65490535 15.13127376 113.43334961 15.12817383 C111.49878906 15.10980469 111.49878906 15.10980469 109.52514648 15.09106445 C93.04109977 15.06630124 76.28993949 16.05934659 63.77709961 28.07348633 C56.65991152 36.44493298 54.68544641 46.66160513 53.87084961 57.31567383 C53.21084961 57.31567383 52.55084961 57.31567383 51.87084961 57.31567383 C51.54084961 57.97567383 51.21084961 58.63567383 50.87084961 59.31567383 C50.85666992 58.37208008 50.84249023 57.42848633 50.82788086 56.45629883 C50.40218571 44.99704553 48.28474084 34.62553259 39.98803711 26.06176758 C27.44445422 15.71678316 10.5872732 14.80742187 -4.98364258 15.03442383 C-7.12867939 15.06566697 -9.27297013 15.07543484 -11.41821289 15.08129883 C-18.17629095 15.11922761 -24.88559751 15.33156721 -31.62915039 15.80786133 C-41.68243158 16.48433457 -51.73347592 16.61086882 -61.80737305 16.66577148 C-64.00767644 16.68226648 -66.20792769 16.7094701 -68.40795898 16.74780273 C-90.75419219 17.13221811 -114.79448852 14.48300476 -135.12915039 4.31567383 C-135.12915039 3.65567383 -135.12915039 2.99567383 -135.12915039 2.31567383 C-133.67081706 2.75317383 -132.21248372 3.19067383 -130.75415039 3.62817383 C-129.83633789 3.90145508 -128.91852539 4.17473633 -127.97290039 4.45629883 C-126.19730796 4.99287896 -124.4256175 5.54276356 -122.66040039 6.11254883 C-97.14707401 14.2304254 -69.89274416 10.22004109 -44.23657227 4.76196289 C-29.56178616 1.65428112 -14.98776502 -0.04544297 0 0 Z " fill="#88B9C8" transform="translate(158.129150390625,195.684326171875)"/>
<path d="M0 0 C15.16746293 3.03349259 29.8664116 8.19298414 44.5 13.125 C46.08063229 13.65523679 47.66136126 14.18518547 49.2421875 14.71484375 C50.7760456 15.22915493 52.30989986 15.74347758 53.84375 16.2578125 C54.57524765 16.5029509 55.3067453 16.74808929 56.06040955 17.00065613 C59.00628265 17.98910492 61.94944542 18.98245542 64.88500977 20.0012207 C68.90400185 21.38929452 72.71785162 22.41078372 76.9375 22.9375 C81.65536462 23.66651677 85.63876525 24.85547592 90.00073242 26.76000977 C93.55338774 28.22878765 97.15799989 29.51957339 100.78515625 30.7890625 C101.53045593 31.05085297 102.27575562 31.31264343 103.04364014 31.58236694 C110.9206018 34.33883743 118.83023332 36.99452497 126.75 39.625 C127.501604 39.87512848 128.25320801 40.12525696 129.02758789 40.38296509 C141.50242097 44.53346694 153.99585192 48.6262364 166.5 52.6875 C167.30562378 52.94952209 168.11124756 53.21154419 168.94128418 53.48150635 C171.2207544 54.22235465 173.50086704 54.96118535 175.78125 55.69921875 C176.45565125 55.91844498 177.13005249 56.1376712 177.82489014 56.36354065 C180.86306395 57.34399507 183.88761273 58.2842098 187 59 C187.09765625 60.953125 187.1953125 62.90625 187.29296875 64.859375 C188.37824458 68.1451825 190.0808428 69.22243472 193 71 C196.40621557 71.55617017 196.40621557 71.55617017 200 71.375 C201.19625 71.36210937 202.3925 71.34921875 203.625 71.3359375 C206.87407949 71.01253375 209.12870462 70.52793933 212 69 C214.29633824 65.55549263 214.54016485 63.06187717 215 59 C227.92876498 54.66057032 240.8965333 50.4440628 253.86816406 46.23486328 C264.9433901 42.64006412 276.00787093 39.01685139 287.04727173 35.31326294 C293.6652806 33.09632551 300.32006491 31.02244266 307 29 C329.68413546 22.01012105 352.24212269 14.63554308 374.74121094 7.07397461 C386.87087673 3.00150901 386.87087673 3.00150901 392.7421875 1.1484375 C393.81895752 0.8069165 393.81895752 0.8069165 394.91748047 0.45849609 C397.32456048 -0.07145657 399.5428335 -0.07895158 402 0 C402 0.99 402 1.98 402 3 C401.3100293 3.20979492 400.62005859 3.41958984 399.90917969 3.63574219 C384.7245544 8.26707772 369.61353153 13.07641561 354.5625 18.125 C334.47083186 24.86139649 334.47083186 24.86139649 324.8125 27.9375 C323.66019897 28.30609131 323.66019897 28.30609131 322.48461914 28.68212891 C318.03677865 30.08861722 313.57051309 31.41548254 309.0884552 32.70903015 C300.54831439 35.18216955 292.14347032 37.93525095 283.75491333 40.878479 C268.93741376 46.07191781 254.02801934 50.90956665 239.02001953 55.52197266 C237.95371056 55.85146912 237.95371056 55.85146912 236.86585999 56.18762207 C234.94874088 56.77945925 233.03020669 57.36670712 231.11157227 57.95361328 C228.09103324 58.88899855 228.09103324 58.88899855 225.74584961 60.12841797 C223.43718676 61.28097375 221.54190445 61.14121691 219 61 C218.938125 62.03125 218.87625 63.0625 218.8125 64.125 C217.78845462 69.00890873 216.53920596 70.54123054 213 74 C208.86754516 76.14302525 205.17942571 76.32850528 200.5625 76.375 C199.28503906 76.40335937 198.00757813 76.43171875 196.69140625 76.4609375 C191.68154698 75.83536777 188.70755258 73.70755258 185.1875 70.1875 C183.56557942 67.19975157 183.32256779 64.35470499 183 61 C181.71738281 60.72929687 180.43476563 60.45859375 179.11328125 60.1796875 C174.06221551 59.05329689 169.1334685 57.64242061 164.1875 56.125 C163.23117676 55.83326904 162.27485352 55.54153809 161.28955078 55.2409668 C150.05744788 51.77158802 138.91747918 48.01845145 127.77807617 44.26416016 C117.32810492 40.7451418 106.84943923 37.39601722 96.25161743 34.34385681 C84.47393142 30.93657323 72.87012881 27.03057341 61.25 23.125 C59.19280443 22.43591096 57.1355131 21.74710774 55.078125 21.05859375 C47.0890538 18.38398078 39.1005275 15.70781317 31.11645508 13.01831055 C29.25604425 12.39365157 27.39561227 11.7690556 25.53515625 11.14453125 C24.28384918 10.72139145 24.28384918 10.72139145 23.00726318 10.28970337 C15.75333618 7.85893564 8.42592636 5.83651942 1 4 C0.67 2.68 0.34 1.36 0 0 Z " fill="#5CA6C4" transform="translate(10,199)"/>
<path d="M0 0 C1.06054596 0.00223572 1.06054596 0.00223572 2.14251709 0.0045166 C14.56449718 0.05143031 26.58628401 1.09331864 38.8125 3.3125 C39.71081543 3.47298828 40.60913086 3.63347656 41.53466797 3.79882812 C45.23739355 4.46363715 48.93798007 5.13958815 52.63745117 5.82226562 C74.16646341 9.78919434 96.10238066 13.12377132 117.8125 8.3125 C118.86824219 8.08304688 119.92398438 7.85359375 121.01171875 7.6171875 C126.58084676 6.31566927 131.60316676 4.64007443 136.8125 2.3125 C137.8025 2.3125 138.7925 2.3125 139.8125 2.3125 C139.8125 2.9725 139.8125 3.6325 139.8125 4.3125 C131.93350144 7.332997 124.03463082 9.91120142 115.875 12.0625 C115.08311279 12.27285889 114.29122559 12.48321777 113.4753418 12.69995117 C95.73525067 17.27387533 95.73525067 17.27387533 89.8125 14.3125 C87.65001859 14.2765858 85.48654872 14.29574407 83.32421875 14.33984375 C75.14747852 14.42750709 67.08540041 13.82570299 58.94702148 13.08569336 C56.58963663 12.87179123 54.23149411 12.66861643 51.87304688 12.46679688 C50.35932105 12.3339466 48.84564692 12.20050573 47.33203125 12.06640625 C46.63414993 12.0059462 45.93626862 11.94548615 45.21723938 11.88319397 C41.99110625 11.58638025 38.93583872 11.1703215 35.8125 10.3125 C25.11310509 9.20425066 14.30820721 9.15836118 3.5625 9.0625 C2.30840332 9.0411499 1.05430664 9.0197998 -0.23779297 8.99780273 C-13.42519311 8.95014161 -26.01261896 10.7784465 -36.03125 20.01171875 C-39.46820366 23.76035694 -41.44076798 27.55750727 -43.1875 32.3125 C-42.70023438 31.67183594 -42.21296875 31.03117187 -41.7109375 30.37109375 C-33.9524831 20.90577938 -24.32684162 15.50392126 -12.1875 13.3125 C-8.71859681 13.03935135 -5.26742729 13.03215374 -1.7890625 13.046875 C-0.7805423 13.04423645 0.22797791 13.0415979 1.26705933 13.03887939 C4.57399655 13.03503972 7.88059686 13.0477641 11.1875 13.0625 C12.88344299 13.06515869 12.88344299 13.06515869 14.61364746 13.06787109 C39.70710841 13.11370551 64.75225174 14.09036597 89.8125 15.3125 C89.8125 15.6425 89.8125 15.9725 89.8125 16.3125 C83.23291874 16.33812115 76.65335062 16.35547913 70.07373047 16.36743164 C67.8413037 16.3724212 65.60888014 16.37921522 63.37646484 16.38793945 C52.55245422 16.42914146 41.8095162 16.46970608 31.01953125 15.54614258 C24.81157668 15.09387305 18.59655574 15.12809993 12.375 15.125 C10.44043945 15.10663086 10.44043945 15.10663086 8.46679688 15.08789062 C-8.01724984 15.06312741 -24.76841012 16.05617276 -37.28125 28.0703125 C-44.39843809 36.44175915 -46.3729032 46.65843131 -47.1875 57.3125 C-47.8475 57.3125 -48.5075 57.3125 -49.1875 57.3125 C-49.5175 57.9725 -49.8475 58.6325 -50.1875 59.3125 C-50.6322953 42.60796557 -49.32685716 24.09071909 -37.265625 11.26953125 C-26.02950938 1.05686027 -14.74497561 -0.07661964 0 0 Z " fill="#7DB3C5" transform="translate(259.1875,195.6875)"/>
<path d="M0 0 C3.96028432 1.32009477 5.05968117 3.75137118 7.1875 7.125 C12.32487465 15.06905852 17.72679012 22.81121676 23.2019043 30.52587891 C27.25062023 36.28849929 30.89132442 42.16828619 34.38989258 48.27905273 C36.4567891 51.77193548 38.77473898 54.97772756 41.25 58.1875 C46.87203956 65.65719068 51.94018306 73.43989952 56.93774414 81.33691406 C58.83082479 84.76585168 58.83082479 84.76585168 62.05859375 86.625 C63.23615234 86.810625 63.23615234 86.810625 64.4375 87 C67.92810843 87.55205669 69.85498615 88.09276425 72 91 C72.75 97.75 72.75 97.75 70.5 101.5 C66.97785199 103.6132888 64.00752241 103.81467088 60 103 C57.5625 101.3125 57.5625 101.3125 56 99 C55.89389404 98.19328857 55.78778809 97.38657715 55.6784668 96.55541992 C54.78073521 93.17414732 53.54462064 92.57937348 50.58203125 90.80078125 C49.66454102 90.23657471 48.74705078 89.67236816 47.80175781 89.09106445 C46.3220752 88.21067505 46.3220752 88.21067505 44.8125 87.3125 C42.78063681 86.06561568 40.75068405 84.81561284 38.72265625 83.5625 C37.73410645 82.9540625 36.74555664 82.345625 35.72705078 81.71875 C32.29207415 79.55382292 29.00909699 77.231002 25.75 74.8125 C19.80376007 70.42724985 13.57852817 66.58958061 7.21386719 62.84106445 C2.78873967 60.20925204 -1.24613428 57.54204885 -5 54 C-5.375 51.1875 -5.375 51.1875 -5 49 C-2.00854771 48.07602857 -0.59162745 47.69489891 2.24731445 49.15893555 C3.0074585 49.749729 3.76760254 50.34052246 4.55078125 50.94921875 C8.26632279 53.72298565 12.00282196 56.34577015 15.91796875 58.83203125 C16.93793945 59.48083252 17.95791016 60.12963379 19.00878906 60.7980957 C20.05776367 61.46284912 21.10673828 62.12760254 22.1875 62.8125 C30.01253952 67.79275159 37.81230599 72.79843628 45.49682617 77.9934082 C48.61155655 80.09614594 51.77090724 82.07851985 55 84 C54.59797363 83.41210693 54.19594727 82.82421387 53.78173828 82.21850586 C45.78705352 70.52300055 37.82828237 58.80750428 30 47 C28.14770964 44.20708267 26.29332937 41.41556696 24.4375 38.625 C23.95539063 37.89877441 23.47328125 37.17254883 22.9765625 36.42431641 C19.85375218 31.73512196 16.68675277 27.07804384 13.4921875 22.4375 C12.71027733 21.29872751 11.92845771 20.15989283 11.14672852 19.02099609 C9.98638234 17.33058536 8.82409687 15.64170813 7.65499878 13.95733643 C6.56299031 12.38399858 5.47861166 10.80537349 4.39453125 9.2265625 C3.76393799 8.31471191 3.13334473 7.40286133 2.48364258 6.46337891 C1.13845959 4.2298926 0.43809171 2.54680288 0 0 Z " fill="#545456" transform="translate(147,59)"/>
<path d="M0 0 C1.8871875 0.0309375 1.8871875 0.0309375 3.8125 0.0625 C0.56449573 2.22783618 -2.48159602 3.10911276 -6.1875 4.125 C-15.55319203 6.76182027 -24.73773723 9.90234627 -33.91992188 13.11547852 C-35.58958008 13.68673462 -35.58958008 13.68673462 -37.29296875 14.26953125 C-38.28449951 14.6147583 -39.27603027 14.95998535 -40.29760742 15.31567383 C-43.41709766 16.12183423 -45.97950855 16.33837988 -49.1875 16.0625 C-50.1775 15.0725 -50.1775 15.0725 -51.1875 14.0625 C-53.3453944 13.73885705 -53.3453944 13.73885705 -55.86157227 13.75952148 C-57.31932823 13.73455849 -57.31932823 13.73455849 -58.80653381 13.70909119 C-59.86166672 13.70067703 -60.91679962 13.69226288 -62.00390625 13.68359375 C-63.63234718 13.65810204 -63.63234718 13.65810204 -65.29368591 13.63209534 C-68.77906404 13.57882799 -72.26443167 13.53866183 -75.75 13.5 C-79.21050848 13.45590328 -82.67092981 13.40894755 -86.1313324 13.35719299 C-88.28610213 13.32555618 -90.44094682 13.29857074 -92.59584045 13.27696228 C-98.53021234 13.19641744 -104.30009711 12.82013337 -110.1875 12.0625 C-110.1875 11.7325 -110.1875 11.4025 -110.1875 11.0625 C-101.2775 11.0625 -92.3675 11.0625 -83.1875 11.0625 C-97.1740139 10.20660885 -111.11115392 9.81639835 -125.12353516 9.76733398 C-127.4269826 9.75572354 -129.73040133 9.73513222 -132.03369141 9.70581055 C-150.03207697 9.27194529 -150.03207697 9.27194529 -167.1875 14.0625 C-168.45871704 14.61550781 -168.45871704 14.61550781 -169.75561523 15.1796875 C-176.35376914 18.22737457 -180.64665216 23.53404459 -185.1875 29.0625 C-185.5175 28.4025 -185.8475 27.7425 -186.1875 27.0625 C-183.03137268 18.31966456 -176.01937664 11.65387357 -167.75 7.6875 C-158.14866 4.0606427 -148.81012979 3.7711486 -138.625 3.875 C-137.28125142 3.88321053 -135.93750137 3.89118397 -134.59375 3.89892578 C-122.88786598 3.98736053 -111.27876122 4.23066085 -99.6875 6 C-83.4060231 8.47761605 -66.99438914 9.32934032 -50.53955078 9.07666016 C-49.11231689 9.05611572 -49.11231689 9.05611572 -47.65625 9.03515625 C-46.39458008 9.00820679 -46.39458008 9.00820679 -45.10742188 8.98071289 C-43.1875 9.0625 -43.1875 9.0625 -42.1875 10.0625 C-28.26381991 8.25343791 -13.76697678 -0.22568814 0 0 Z " fill="#DCEEF3" transform="translate(401.1875,199.9375)"/>
<path d="M0 0 C1.10180099 -0.01805191 1.10180099 -0.01805191 2.2258606 -0.03646851 C16.58332496 -0.23912938 29.47090023 1.69342564 40.75 11.4375 C44.83155032 15.51905032 47.74362602 21.03220023 49.75 26.4375 C49.42 27.4275 49.09 28.4175 48.75 29.4375 C48.3478125 28.58478516 48.3478125 28.58478516 47.9375 27.71484375 C43.53962386 19.04929175 37.01943394 12.69391879 27.75 9.4375 C16.03995965 6.31388876 4.51444275 5.24219142 -7.5625 5.25 C-8.63862549 5.24935547 -9.71475098 5.24871094 -10.82348633 5.24804688 C-20.26699431 5.30766584 -29.62292009 5.97835032 -39.03320312 6.72143555 C-52.77341208 7.7416479 -66.48041092 7.62803183 -80.25 7.4375 C-80.25 7.1075 -80.25 6.7775 -80.25 6.4375 C-79.29561035 6.36233154 -78.3412207 6.28716309 -77.35791016 6.2097168 C-72.86313181 5.85397228 -68.36903989 5.48993779 -63.875 5.125 C-63.05291046 5.05880463 -62.23082092 4.99260925 -61.38381958 4.92440796 C-52.2893245 4.18798604 -43.23878298 3.37007165 -34.19384766 2.15185547 C-22.78266732 0.62653447 -11.49770219 0.09262926 0 0 Z " fill="#E8F4F6" transform="translate(158.25,203.5625)"/>
<path d="M0 0 C0 0.66 0 1.32 0 2 C-7.87899856 5.020497 -15.77786918 7.59870142 -23.9375 9.75 C-24.72938721 9.96035889 -25.52127441 10.17071777 -26.3371582 10.38745117 C-44.07724933 14.96137533 -44.07724933 14.96137533 -50 12 C-52.16248141 11.9640858 -54.32595128 11.98324407 -56.48828125 12.02734375 C-64.66502148 12.11500709 -72.72709959 11.51320299 -80.86547852 10.77319336 C-83.22286337 10.55929123 -85.58100589 10.35611643 -87.93945312 10.15429688 C-89.45317895 10.0214466 -90.96685308 9.88800573 -92.48046875 9.75390625 C-93.17835007 9.6934462 -93.87623138 9.63298615 -94.59526062 9.57069397 C-97.82139375 9.27388025 -100.87666128 8.8578215 -104 8 C-114.69939491 6.89175066 -125.50429279 6.84586118 -136.25 6.75 C-137.50409668 6.7286499 -138.75819336 6.7072998 -140.05029297 6.68530273 C-152.40321805 6.64065752 -164.02545062 8.21190076 -174 16 C-175.72346727 17.71981585 -177.26145033 19.45889819 -178.74609375 21.38671875 C-180.05125793 23.06594868 -181.47101759 24.52450969 -183 26 C-181.05012965 19.06712763 -175.72856143 13.72564156 -169.625 10.1875 C-165.24214044 7.96235591 -160.72443175 6.33693289 -156 5 C-155.18233154 4.74198608 -155.18233154 4.74198608 -154.34814453 4.47875977 C-151.03827523 3.80391534 -147.75139309 3.79740282 -144.38671875 3.76171875 C-143.63255676 3.75215149 -142.87839478 3.74258423 -142.10137939 3.73272705 C-139.63004426 3.70795129 -137.15894439 3.69554857 -134.6875 3.6875 C-133.84341583 3.68388458 -132.99933167 3.68026917 -132.12966919 3.67654419 C-116.58972798 3.64991741 -101.71955479 5.18033046 -86.36669922 7.54248047 C-80.93048004 8.28123861 -75.47377551 8.65991168 -70 9 C-71.32 8.34 -72.64 7.68 -74 7 C-72.64595503 6.97236643 -71.29173445 6.95332578 -69.9375 6.9375 C-69.18339844 6.92589844 -68.42929687 6.91429687 -67.65234375 6.90234375 C-65 7 -65 7 -61.88671875 7.4921875 C-48.91120481 9.18748078 -34.76563875 8.82904717 -22 6 C-20.94425781 5.77054688 -19.88851562 5.54109375 -18.80078125 5.3046875 C-12.80970429 3.90455881 -5.97965024 0 0 0 Z " fill="#75AFC5" transform="translate(399,198)"/>
<path d="M0 0 C1.45833333 0.4375 2.91666667 0.875 4.375 1.3125 C5.2928125 1.58578125 6.210625 1.8590625 7.15625 2.140625 C8.93184243 2.67720513 10.70353289 3.22708973 12.46875 3.796875 C23.22518463 7.21937693 33.94159047 8.319526 45.1875 8.625 C46.9823584 8.68192017 46.9823584 8.68192017 48.81347656 8.73999023 C60.87486996 9.0896533 72.93485152 9.10346104 85 9 C85 9.33 85 9.66 85 10 C74.605 10.99 74.605 10.99 64 12 C75.83992482 12.17035863 87.4450951 11.91308657 99.25 11 C155.4395099 6.77000733 155.4395099 6.77000733 176 22 C172.37512556 22 170.94892995 20.96553133 167.8125 19.1875 C156.02380483 13.18993682 143.14472503 12.52923977 130.14550781 12.71875 C128.000471 12.74999314 125.85618026 12.75976101 123.7109375 12.765625 C116.95285944 12.80355378 110.24355288 13.01589338 103.5 13.4921875 C93.44671881 14.16866074 83.39567447 14.29519499 73.32177734 14.35009766 C71.12147395 14.36659265 68.9212227 14.39379627 66.72119141 14.43212891 C44.3749582 14.81654429 20.33466187 12.16733094 0 2 C0 1.34 0 0.68 0 0 Z " fill="#6DACC1" transform="translate(23,198)"/>
<path d="M0 0 C0 0.33 0 0.66 0 1 C-10.29981895 0.75505781 -20.37230872 0.01148695 -30.5690918 -1.50268555 C-44.17937083 -3.5046337 -57.49212253 -4.41460085 -71.25 -4.4375 C-72.46317902 -4.44621628 -72.46317902 -4.44621628 -73.7008667 -4.45510864 C-88.95107638 -4.53110895 -102.51919006 -2.58453663 -114.16796875 7.984375 C-117.15455832 11.27026033 -119.11522938 15.00392382 -121 19 C-122.31518695 15.05443914 -121.36164115 13.93239799 -119.5625 10.25 C-115.18096835 1.87145911 -108.91296944 -3.73500599 -100 -7 C-69.42567741 -16.31267161 -30.80296218 -4.99460473 0 0 Z " fill="#EFF7F8" transform="translate(336,207)"/>
<path d="M0 0 C1.33962536 -0.01155691 2.67920335 -0.03206747 4.01855469 -0.06152344 C17.73607859 -0.36089393 28.76422244 2.0156234 39.07177734 11.42016602 C42.93165258 15.3917971 45.74385657 20.03568329 47.50927734 25.29516602 C47.01427734 26.78016602 47.01427734 26.78016602 46.50927734 28.29516602 C46.15736328 27.64290039 45.80544922 26.99063477 45.44287109 26.31860352 C39.35532414 15.54221491 31.71301586 9.78062069 19.82177734 6.17797852 C12.14863665 4.58857615 4.18626662 4.90670335 -3.61572266 4.92016602 C-4.47033081 4.91871582 -5.32493896 4.91726562 -6.20544434 4.91577148 C-20.70728671 4.9184739 -34.68994611 6.19431541 -49.00634766 8.42016602 C-54.87522214 9.30970531 -60.56440606 9.51187236 -66.49072266 9.29516602 C-66.49072266 8.96516602 -66.49072266 8.63516602 -66.49072266 8.29516602 C-62.63711357 7.66669612 -58.78284336 7.04240096 -54.92822266 6.42016602 C-53.79191406 6.23671631 -52.65560547 6.0532666 -51.48486328 5.86425781 C-44.0001834 4.66698561 -36.51671799 3.58844894 -28.99072266 2.68969727 C-26.55617583 2.55669805 -26.55617583 2.55669805 -25.49072266 1.29516602 C-17.07396973 0.11474473 -8.48457846 0.05068817 0 0 Z " fill="#F2F7FA" transform="translate(160.49072265625,197.704833984375)"/>
<path d="M0 0 C0.99271912 0.0036557 0.99271912 0.0036557 2.00549316 0.00738525 C28.1832742 0.1207742 28.1832742 0.1207742 32.3125 4.25 C30.86351318 4.279729 30.86351318 4.279729 29.38525391 4.31005859 C-6.59008914 3.11588733 -6.59008914 3.11588733 -38.6875 16.25 C-41.45401939 19.16852596 -44.09787209 22.17399527 -46.6875 25.25 C-47.0175 24.59 -47.3475 23.93 -47.6875 23.25 C-44.53137268 14.50716456 -37.51937664 7.84137357 -29.25 3.875 C-19.62811378 0.24011385 -10.20844621 -0.07286269 0 0 Z " fill="#E5F3F6" transform="translate(262.6875,203.75)"/>
<path d="M0 0 C0.66 0.33 1.32 0.66 2 1 C1.67 1.66 1.34 2.32 1 3 C4.32531345 4.02767225 7.66100745 5.01771498 11 6 C11.65419922 6.19287598 12.30839844 6.38575195 12.98242188 6.58447266 C15.19414545 7.23184354 17.40916114 7.86686907 19.625 8.5 C20.30933105 8.70133545 20.99366211 8.9026709 21.69873047 9.11010742 C24.12081222 9.79487152 26.55535453 10.40068029 29 11 C29.99870117 11.26981689 30.99740234 11.53963379 32.02636719 11.81762695 C46.0702937 15.08009466 60.5126891 14.34186027 74.83947754 14.20599365 C78.47366052 14.17488575 82.10790876 14.1615148 85.7421875 14.14648438 C92.82828131 14.11464783 99.91411471 14.06368632 107 14 C107 14.33 107 14.66 107 15 C101.21542771 15.97274974 95.55083219 16.21069126 89.69140625 16.31640625 C88.24132423 16.3475779 88.24132423 16.3475779 86.76194763 16.37937927 C83.69553242 16.44438991 80.62903678 16.50353277 77.5625 16.5625 C75.4746013 16.6057314 73.38671051 16.64934712 71.29882812 16.69335938 C66.19929967 16.80002115 61.09969089 16.90142309 56 17 C56 17.99 56 18.98 56 20 C56 20.66 56 21.32 56 22 C56.639375 22.12375 57.27875 22.2475 57.9375 22.375 C58.618125 22.58125 59.29875 22.7875 60 23 C60.495 23.99 60.495 23.99 61 25 C51.84660936 22.74148655 43.01497216 19.66185431 34.12408447 16.5586853 C19.86610922 11.58832971 5.61238274 6.83706453 -9 3 C-5.90226756 2.15937603 -3.21667249 1.91064799 0 2 C0 1.34 0 0.68 0 0 Z " fill="#DFEEF3" transform="translate(22,197)"/>
<path d="M0 0 C14.26459189 2.85291838 28.12444924 7.60181528 41.89428711 12.22949219 C44.19595065 13.00283937 46.49920268 13.7712999 48.80273438 14.5390625 C57.90959146 17.58208281 66.97247607 20.72877778 76 24 C76 24.66 76 25.32 76 26 C69.92810117 25.53287145 64.51701945 24.4530888 58.7734375 22.453125 C57.64731552 22.07350616 57.64731552 22.07350616 56.4984436 21.68621826 C54.12096975 20.8826615 51.74798699 20.06669939 49.375 19.25 C47.80888143 18.71790254 46.24247662 18.18664676 44.67578125 17.65625 C41.59427795 16.61175015 38.51398451 15.56380927 35.43481445 14.51245117 C21.60940027 9.74037673 21.60940027 9.74037673 7.5625 5.6875 C6.30566406 5.36136719 5.04882812 5.03523437 3.75390625 4.69921875 C2.84511719 4.46847656 1.93632812 4.23773438 1 4 C0.67 2.68 0.34 1.36 0 0 Z " fill="#54A2C3" transform="translate(10,199)"/>
<path d="M0 0 C3.96028432 1.32009477 5.05968117 3.75137118 7.1875 7.125 C12.32487465 15.06905852 17.72679012 22.81121676 23.2019043 30.52587891 C27.24958614 36.28702746 30.8881587 42.16530062 34.38549805 48.2746582 C36.47018475 51.79369006 38.81575192 55.01724909 41.3125 58.25 C45.33976823 63.6187476 49.14434556 69.08866514 52.75 74.75 C53.19255127 75.4296582 53.63510254 76.10931641 54.09106445 76.80957031 C55.14399092 78.49033003 56.08286542 80.24145755 57 82 C56.505 83.485 56.505 83.485 56 85 C53.44048658 83.72024329 53.20732453 82.55124626 52 80 C51.19824879 78.71957387 50.37399691 77.45304239 49.53125 76.19921875 C49.04785156 75.47734375 48.56445312 74.75546875 48.06640625 74.01171875 C47.54949219 73.24472656 47.03257812 72.47773438 46.5 71.6875 C45.40621967 70.05600992 44.3124701 68.42449921 43.21875 66.79296875 C42.67347656 65.98134277 42.12820312 65.1697168 41.56640625 64.33349609 C39.36964538 61.06095239 37.1845881 57.78067561 35 54.5 C34.17842125 53.26820526 33.35680621 52.03643474 32.53515625 50.8046875 C30.7897983 48.18699053 29.04819706 45.56683689 27.30859375 42.9453125 C26.35170439 41.50511405 25.39466951 40.06501228 24.4375 38.625 C23.95563232 37.89909668 23.47376465 37.17319336 22.97729492 36.42529297 C19.85414386 31.7358381 16.68698317 27.07837853 13.4921875 22.4375 C12.71027733 21.29872751 11.92845771 20.15989283 11.14672852 19.02099609 C9.98638234 17.33058536 8.82409687 15.64170813 7.65499878 13.95733643 C6.56299031 12.38399858 5.47861166 10.80537349 4.39453125 9.2265625 C3.44864136 7.85878662 3.44864136 7.85878662 2.48364258 6.46337891 C1.13845959 4.2298926 0.43809171 2.54680288 0 0 Z " fill="#676767" transform="translate(147,59)"/>
<path d="M0 0 C1.6065676 0.25620684 3.2102483 0.53055871 4.8125 0.8125 C6.15248047 1.03873047 6.15248047 1.03873047 7.51953125 1.26953125 C10.24925544 2.07340278 11.34724846 2.70331929 13 5 C13.75 11.75 13.75 11.75 11.5 15.5 C7.97359191 17.61584485 5.01178761 17.80730018 1 17 C-1.99637541 15.0024164 -2.79983893 13.562953 -4 10.1875 C-4 5.75894861 -2.42080661 3.6678888 0 0 Z " fill="#3E9AC3" transform="translate(206,145)"/>
<path d="M0 0 C4.78500359 -0.19140014 9.20584956 0.12820437 13.9375 0.875 C32.88006488 3.70526583 51.87419659 4.33603925 71 4 C71 4.33 71 4.66 71 5 C70.2575 5.144375 69.515 5.28875 68.75 5.4375 C67.19094283 5.75639806 65.63543244 6.10359024 64.10469055 6.5385437 C61.82218202 7.03898684 59.90717966 7.05214824 57.57495117 6.94580078 C56.26068901 6.89042145 56.26068901 6.89042145 54.9198761 6.83392334 C53.97049667 6.78818176 53.02111725 6.74244019 52.04296875 6.6953125 C50.54330818 6.63056732 50.54330818 6.63056732 49.01335144 6.56451416 C46.85887428 6.47122314 44.70450254 6.37547184 42.55023193 6.27752686 C36.89471414 6.02100378 31.23841218 5.7834879 25.58203125 5.546875 C24.44157349 5.49892792 23.30111572 5.45098083 22.12609863 5.40158081 C11.21158862 4.95112317 0.29552605 4.63530721 -10.625 4.375 C-11.46954742 4.35471741 -12.31409485 4.33443481 -13.18423462 4.3135376 C-17.78938139 4.20384677 -22.3946147 4.09925747 -27 4 C-27 3.67 -27 3.34 -27 3 C-16.11 2.67 -5.22 2.34 6 2 C3.03 1.505 3.03 1.505 0 1 C0 0.67 0 0.34 0 0 Z " fill="#CDE5EF" transform="translate(287,205)"/>
<path d="M0 0 C0.82355988 -0.00095673 1.64711975 -0.00191345 2.49563599 -0.00289917 C4.23553545 -0.0035787 5.97543746 -0.00174026 7.71533203 0.00244141 C10.36626955 0.00777919 13.01703659 0.00249578 15.66796875 -0.00390625 C17.36197954 -0.00324516 19.05599022 -0.00196336 20.75 0 C21.53768768 -0.00202423 22.32537537 -0.00404846 23.13693237 -0.00613403 C27.37108538 0.01172293 31.33673058 0.29660316 35.5078125 1.1328125 C31.61771758 3.76258123 27.53981984 3.33475074 23.04296875 3.22265625 C21.33789382 3.2022055 19.63281555 3.18203249 17.92773438 3.16210938 C15.26214458 3.11897054 12.59677854 3.07085362 9.93139648 3.01635742 C-4.62247831 2.74031925 -18.43954299 2.7221426 -30.4921875 12.1328125 C-32.21565477 13.85262835 -33.75363783 15.59171069 -35.23828125 17.51953125 C-36.54344543 19.19876118 -37.96320509 20.65732219 -39.4921875 22.1328125 C-37.54231715 15.19994013 -32.22074893 9.85845406 -26.1171875 6.3203125 C-17.64025624 2.0166397 -9.46840446 -0.02420786 0 0 Z " fill="#82B7C7" transform="translate(255.4921875,201.8671875)"/>
<path d="M0 0 C-6.32683467 2.02097573 -12.65988247 4.02107899 -19 6 C-19.78375 6.24508301 -20.5675 6.49016602 -21.375 6.74267578 C-29.33407509 9.21434168 -37.07062534 11.35683298 -45.34375 12.52734375 C-48.75152067 13.13372647 -51.85486978 14.22988167 -55.0625 15.51171875 C-57.3853195 16.09710673 -58.72660509 15.64190321 -61 15 C-40.06031558 7.95576068 -40.06031558 7.95576068 -30.20703125 4.97265625 C-26.25612177 3.77439016 -22.3153593 2.54493747 -18.375 1.3125 C-17.68688232 1.09770996 -16.99876465 0.88291992 -16.28979492 0.66162109 C-9.76328813 -1.37877876 -6.55676097 -2.18558699 0 0 Z " fill="#5EA8C4" transform="translate(344,224)"/>
<path d="M0 0 C-4.59020112 3.06013408 -7.70031819 4.26723091 -13.2421875 4.78125 C-15.09070313 4.96107422 -15.09070313 4.96107422 -16.9765625 5.14453125 C-18.90628906 5.32048828 -18.90628906 5.32048828 -20.875 5.5 C-29.5757682 6.31794412 -38.21083151 7.24976259 -46.84667969 8.60302734 C-51.57119677 9.19779854 -56.24827327 9.17455323 -61 9 C-61 8.67 -61 8.34 -61 8 C-57.14639092 7.3715301 -53.29212071 6.74723494 -49.4375 6.125 C-48.30119141 5.94155029 -47.16488281 5.75810059 -45.99414062 5.5690918 C-38.50946075 4.3718196 -31.02599534 3.29328293 -23.5 2.39453125 C-21.06545317 2.26153203 -21.06545317 2.26153203 -20 1 C-13.35827986 0.13923307 -6.69026736 -0.12865899 0 0 Z " fill="#E1F1F5" transform="translate(155,198)"/>
<path d="M0 0 C6.06287164 0.39115301 10.86107044 1.4768088 16.4296875 3.89453125 C18.20311567 4.65726708 20.00319669 5.3598725 21.8203125 6.01171875 C22.72523437 6.33785156 23.63015625 6.66398438 24.5625 7 C25.38878906 7.28875 26.21507813 7.5775 27.06640625 7.875 C29 9 29 9 29.77734375 11.125 C29.85082031 11.74375 29.92429687 12.3625 30 13 C25.5143059 12.5327402 21.81380616 11.64962731 17.59765625 9.96484375 C13.94161359 8.60688505 10.22491882 7.46565495 6.5 6.3125 C5.7685376 6.08594727 5.0370752 5.85939453 4.28344727 5.62597656 C2.52284718 5.08220366 0.76150048 4.54084906 -1 4 C-0.01 3.67 0.98 3.34 2 3 C2 2.34 2 1.68 2 1 C1.34 0.67 0.68 0.34 0 0 Z " fill="#77B7D0" transform="translate(84,222)"/>
<path d="M0 0 C2.74542822 -0.29233194 5.2616322 -0.39596154 8.0078125 -0.36328125 C8.80726288 -0.36377975 9.60671326 -0.36427826 10.4303894 -0.36479187 C12.12679521 -0.36244817 13.82320427 -0.35270222 15.51953125 -0.33618164 C18.09407382 -0.31278109 20.66756699 -0.31559434 23.2421875 -0.32226562 C24.89323526 -0.316682 26.54427868 -0.30956785 28.1953125 -0.30078125 C28.95707794 -0.30169266 29.71884338 -0.30260406 30.50369263 -0.30354309 C35.62634958 -0.23699179 40.06956176 0.59763402 45 2 C45 2.33 45 2.66 45 3 C29.49 3 13.98 3 -2 3 C-1.34 2.01 -0.68 1.02 0 0 Z " fill="#FAFCF9" transform="translate(250,205)"/>
<path d="M0 0 C0.495 0.495 0.495 0.495 1 1 C2.34747084 1.23075082 3.70377565 1.41153063 5.0625 1.5625 C6.361875 1.706875 7.66125 1.85125 9 2 C9 2.33 9 2.66 9 3 C-10.73553867 4.65748549 -30.20147123 5.27395516 -50 5 C-50 4.67 -50 4.34 -50 4 C-48.94087402 3.91435791 -47.88174805 3.82871582 -46.79052734 3.74047852 C-42.84305096 3.42060511 -38.89585382 3.09739163 -34.94873047 2.77319336 C-33.24372618 2.63361655 -31.53864851 2.49493308 -29.83349609 2.35717773 C-27.37577572 2.15846537 -24.91834137 1.95649079 -22.4609375 1.75390625 C-21.70444916 1.6934462 -20.94796082 1.63298615 -20.16854858 1.57069397 C-0.929866 -0.03152088 -0.929866 -0.03152088 0 0 Z " fill="#D7EBF1" transform="translate(128,206)"/>
<path d="M0 0 C9.2370807 3.27671723 15.93781272 11.25332923 20.3125 19.8125 C20.875 22 20.875 22 19.875 25 C19.52308594 24.34773438 19.17117187 23.69546875 18.80859375 23.0234375 C13.35205421 13.3640803 7.17236615 8.19334451 -3.125 4 C-6.52021568 3.14938651 -6.52021568 3.14938651 -9.125 3 C-8.135 2.67 -7.145 2.34 -6.125 2 C-6.125 1.34 -6.125 0.68 -6.125 0 C-3.54182979 -1.2915851 -2.72347868 -0.8350736 0 0 Z " fill="#EBF7F8" transform="translate(187.125,201)"/>
<path d="M0 0 C-4.72046747 3.14697831 -10.14418793 4.58034789 -15.49438477 6.3684082 C-17.53462084 7.05314332 -19.5689619 7.75366974 -21.60351562 8.45507812 C-28.68756503 10.85481328 -35.4583073 12.7929029 -43 13 C-40.7333731 10.41939324 -38.81634642 9.35500509 -35.5703125 8.28125 C-34.69834229 7.99000244 -33.82637207 7.69875488 -32.92797852 7.39868164 C-32.00299561 7.1021167 -31.0780127 6.80555176 -30.125 6.5 C-29.18132568 6.19247803 -28.23765137 5.88495605 -27.26538086 5.56811523 C-9.18771564 -0.23003117 -9.18771564 -0.23003117 0 0 Z " fill="#51A0C1" transform="translate(380,211)"/>
<path d="M0 0 C1.45833333 0.4375 2.91666667 0.875 4.375 1.3125 C5.2928125 1.58578125 6.210625 1.8590625 7.15625 2.140625 C8.93184243 2.67720513 10.70353289 3.22708973 12.46875 3.796875 C18.14110862 5.60171638 23.73753657 6.71475053 29.62890625 7.5703125 C32 8 32 8 33 9 C34.55948542 9.15686249 36.12542668 9.25076639 37.69140625 9.31640625 C38.63564453 9.35830078 39.57988281 9.40019531 40.55273438 9.44335938 C42.04256836 9.50233398 42.04256836 9.50233398 43.5625 9.5625 C45.05813477 9.62727539 45.05813477 9.62727539 46.58398438 9.69335938 C49.0558415 9.79980298 51.5278031 9.90181928 54 10 C54 10.33 54 10.66 54 11 C51.69 11.33 49.38 11.66 47 12 C47 12.33 47 12.66 47 13 C40.13720631 13.23737028 34.10848873 12.44975013 27.4375 10.875 C26.48601074 10.65561768 25.53452148 10.43623535 24.55419922 10.21020508 C16.07611988 8.17498231 8.03815386 5.3511501 0 2 C0 1.34 0 0.68 0 0 Z " fill="#50A0C0" transform="translate(23,198)"/>
<path d="M0 0 C0.66 0.33 1.32 0.66 2 1 C1.67 1.66 1.34 2.32 1 3 C13.50147578 6.86352141 26.10413448 10.71202386 39 13 C39 13.33 39 13.66 39 14 C38.21625 14.144375 37.4325 14.28875 36.625 14.4375 C34.03578982 14.87798925 34.03578982 14.87798925 32 16 C29.51660156 15.35083008 29.51660156 15.35083008 26.390625 14.26953125 C25.24891846 13.88015381 24.10721191 13.49077637 22.9309082 13.08959961 C21.10885864 12.4574353 21.10885864 12.4574353 19.25 11.8125 C9.88990189 8.62176766 0.56412542 5.52804055 -9 3 C-5.90226756 2.15937603 -3.21667249 1.91064799 0 2 C0 1.34 0 0.68 0 0 Z " fill="#D3EAEF" transform="translate(22,197)"/>
<path d="M0 0 C0.33 0 0.66 0 1 0 C1.33 3.3 1.66 6.6 2 10 C2.99 10.33 3.98 10.66 5 11 C5 11.99 5 12.98 5 14 C5.66 14 6.32 14 7 14 C7.33 13.34 7.66 12.68 8 12 C7.125 19.75 7.125 19.75 6 22 C3.03 21.01 0.06 20.02 -3 19 C-2.13329546 12.64416673 -1.06965872 6.32448699 0 0 Z " fill="#4DA0C3" transform="translate(341,171)"/>
<path d="M0 0 C1.8871875 0.0309375 1.8871875 0.0309375 3.8125 0.0625 C0.45465308 2.30106461 -2.78954733 3.19685645 -6.625 4.25 C-14.46862195 6.46007657 -22.12128479 9.08271048 -29.76147461 11.91479492 C-30.97589233 12.35529175 -30.97589233 12.35529175 -32.21484375 12.8046875 C-32.93406006 13.0713623 -33.65327637 13.33803711 -34.39428711 13.61279297 C-36.1875 14.0625 -36.1875 14.0625 -38.1875 13.0625 C-37.8575 12.4025 -37.5275 11.7425 -37.1875 11.0625 C-38.8375 11.0625 -40.4875 11.0625 -42.1875 11.0625 C-42.1875 10.7325 -42.1875 10.4025 -42.1875 10.0625 C-40.91132813 9.84207031 -40.91132813 9.84207031 -39.609375 9.6171875 C-26.89650477 7.26395407 -12.71744531 -0.20848271 0 0 Z " fill="#D9EDF2" transform="translate(401.1875,199.9375)"/>
<path d="M0 0 C1.29550781 0.00322266 2.59101563 0.00644531 3.92578125 0.00976562 C5.28906317 0.01812027 6.65234442 0.02658521 8.015625 0.03515625 C9.39452965 0.04017457 10.77343604 0.0447369 12.15234375 0.04882812 C15.52348159 0.06061532 18.89453128 0.0770699 22.265625 0.09765625 C21.935625 1.08765625 21.605625 2.07765625 21.265625 3.09765625 C11.035625 3.09765625 0.805625 3.09765625 -9.734375 3.09765625 C-10.064375 2.43765625 -10.394375 1.77765625 -10.734375 1.09765625 C-7.12801267 -0.03030773 -3.76293496 -0.0165041 0 0 Z " fill="#F8FBFA" transform="translate(138.734375,204.90234375)"/>
<path d="M0 0 C5.50473588 8.25710381 6.77192348 17.38924112 5 27 C2.04020687 25.52010343 1.84923446 23.42502599 0.6875 20.375 C-1.35219392 15.28790623 -3.59790043 11.27692518 -7 7 C-2.38348515 8.53883828 -0.58734091 12.11898864 2 16 C0.35 12.37 -1.3 8.74 -3 5 C0 6 0 6 1 7 C0.67 4.69 0.34 2.38 0 0 Z " fill="#9FC3CA" transform="translate(205,214)"/>
<path d="M0 0 C0 0.33 0 0.66 0 1 C-1.53708618 1.08302368 -1.53708618 1.08302368 -3.10522461 1.16772461 C-6.89423139 1.37361736 -10.68287398 1.58564417 -14.47143555 1.79956055 C-16.11359477 1.89141481 -17.75584889 1.98158805 -19.39819336 2.07006836 C-21.75401139 2.19727543 -24.10942594 2.33045404 -26.46484375 2.46484375 C-27.20339096 2.50343002 -27.94193817 2.5420163 -28.7028656 2.58177185 C-32.14524707 2.49667404 -32.14524707 2.49667404 -35 4 C-36.34267413 4.08631874 -37.68974322 4.10706473 -39.03515625 4.09765625 C-39.84404297 4.09443359 -40.65292969 4.09121094 -41.48632812 4.08789062 C-42.33646484 4.07951172 -43.18660156 4.07113281 -44.0625 4.0625 C-44.91650391 4.05798828 -45.77050781 4.05347656 -46.65039062 4.04882812 C-48.76695663 4.03700373 -50.88348685 4.01906769 -53 4 C-48.71286609 1.14191073 -44.48844121 0.95787137 -39.4375 0.3125 C-38.39078125 0.17803467 -37.3440625 0.04356934 -36.265625 -0.0949707 C-24.14725413 -1.46725072 -12.13738695 -0.84353067 0 0 Z " fill="#93C3D5" transform="translate(169,197)"/>
<path d="M0 0 C0 0.66 0 1.32 0 2 C-0.66 2 -1.32 2 -2 2 C-2 2.66 -2 3.32 -2 4 C-4.74875682 4.67218507 -7.49880726 5.33792435 -10.25 6 C-11.02730469 6.19078125 -11.80460937 6.3815625 -12.60546875 6.578125 C-13.73662109 6.84882813 -13.73662109 6.84882813 -14.890625 7.125 C-15.58188477 7.29257813 -16.27314453 7.46015625 -16.98535156 7.6328125 C-19 8 -19 8 -23 8 C-22.67 6.68 -22.34 5.36 -22 4 C-19.64856824 3.32210976 -17.29461376 2.65759253 -14.9375 2 C-14.28072266 1.80921875 -13.62394531 1.6184375 -12.94726562 1.421875 C-8.5325982 0.20403571 -4.62058323 -0.19227394 0 0 Z " fill="#5BA5C5" transform="translate(118,178)"/>
<path d="M0 0 C0.66 0 1.32 0 2 0 C3.7479503 5.24385089 4.19392201 9.47322267 4 15 C3.34 15 2.68 15 2 15 C2 17.31 2 19.62 2 22 C1.34 22.33 0.68 22.66 0 23 C0 20.36 0 17.72 0 15 C-0.66 15 -1.32 15 -2 15 C-2 17.64 -2 20.28 -2 23 C-2.33 23 -2.66 23 -3 23 C-3.20713203 17.17728856 -3.08240751 12.51225517 -1 7 C-0.62468554 4.67305036 -0.28082798 2.34023315 0 0 Z " fill="#369CC6" transform="translate(346,121)"/>
<path d="M0 0 C9.69080055 -0.9531935 17.92716328 2.21036057 26.96044922 5.33569336 C28.95796849 5.98630982 30.95644671 6.51566811 33 7 C33 8.98 33 10.96 33 13 C32.67 13 32.34 13 32 13 C32 11.35 32 9.7 32 8 C31.13938965 8.19907959 30.2787793 8.39815918 29.39208984 8.60327148 C25.59745499 9.04708044 23.34475777 8.51192701 19.7265625 7.34765625 C18.57285156 6.98349609 17.41914063 6.61933594 16.23046875 6.24414062 C15.04066406 5.85419922 13.85085937 5.46425781 12.625 5.0625 C11.41199219 4.67642578 10.19898438 4.29035156 8.94921875 3.89257812 C5.96219292 2.94002264 2.97958751 1.97552444 0 1 C0 0.67 0 0.34 0 0 Z " fill="#55A3C0" transform="translate(164,251)"/>
<path d="M0 0 C1.32 0 2.64 0 4 0 C4.226875 1.0725 4.45375 2.145 4.6875 3.25 C6.21583985 7.61668529 6.97500847 8.78214753 11 11 C14.6404047 11.89728285 18.28502258 12.50553716 22 13 C22 13.66 22 14.32 22 15 C8.36020151 15.23929471 8.36020151 15.23929471 4.1875 11.4375 C1.56555311 7.8926968 0.81323057 4.28794302 0 0 Z " fill="#479DC0" transform="translate(192,259)"/>
<path d="M0 0 C0 0.66 0 1.32 0 2 C-17.0354092 8.46170694 -31.76178707 10.45578002 -50 10 C-50 9.67 -50 9.34 -50 9 C-49.32122803 8.96036133 -48.64245605 8.92072266 -47.94311523 8.87988281 C-26.58952945 7.64965095 -26.58952945 7.64965095 -6.2890625 1.37109375 C-3 0 -3 0 0 0 Z " fill="#72AEC7" transform="translate(399,198)"/>
<path d="M0 0 C0 0.33 0 0.66 0 1 C-4.67573407 1.60137936 -9.35294602 2.18879344 -14.03198242 2.76391602 C-15.62001526 2.96103001 -17.2075987 3.16180325 -18.79467773 3.36645508 C-35.02895258 5.4551051 -35.02895258 5.4551051 -43 4 C-43 3.67 -43 3.34 -43 3 C-28.62683777 1.13021255 -14.50787471 -0.54556075 0 0 Z " fill="#7FB6CA" transform="translate(148,203)"/>
<path d="M0 0 C8.8293034 1.76586068 17.38564937 4.40877168 26 7 C23.51053949 8.62772418 22.24521355 9.02188166 19.2421875 8.75390625 C15.51543515 7.88732408 11.81449634 6.94925142 8.125 5.9375 C7.43664062 5.75123047 6.74828125 5.56496094 6.0390625 5.37304688 C4.35867486 4.91794189 2.67923678 4.45933322 1 4 C0.67 2.68 0.34 1.36 0 0 Z " fill="#55A4C4" transform="translate(10,199)"/>
<path d="M0 0 C4.71517534 0.82208468 9.23479645 2.19264236 13.8125 3.5625 C14.60076172 3.79646484 15.38902344 4.03042969 16.20117188 4.27148438 C18.13470136 4.84568404 20.06743177 5.42257333 22 6 C22 6.99 22 7.98 22 9 C16.73229802 8.34240251 11.69866827 7.26735876 6.5625 5.9375 C5.83095703 5.75123047 5.09941406 5.56496094 4.34570312 5.37304688 C2.56296802 4.9186242 0.78136213 4.45977534 -1 4 C-0.67 2.68 -0.34 1.36 0 0 Z " fill="#6BAEC9" transform="translate(96,121)"/>
<path d="M0 0 C1.32 0 2.64 0 4 0 C4 0.66 4 1.32 4 2 C5.299375 2.103125 6.59875 2.20625 7.9375 2.3125 C12.90160353 2.848308 17.34248334 4.24930225 22 6 C22 6.99 22 7.98 22 9 C6.25512528 6.10933941 6.25512528 6.10933941 -1 3 C-0.67 2.01 -0.34 1.02 0 0 Z " fill="#66ADC8" transform="translate(304,177)"/>
<path d="M0 0 C4.37415276 -0.07493936 8.74795155 -0.12896881 13.12255859 -0.16479492 C14.60634889 -0.17975184 16.09009599 -0.20012495 17.57373047 -0.22631836 C25.34035845 -0.35986456 32.5864674 -0.44912745 39.98193359 2.30761719 C42.11943407 3.0409769 44.00247765 3.26674906 46.25 3.4375 C50.66553218 4.09982983 52.53130376 5.31176042 56 8 C53.30601463 9.34699269 52.27521302 8.67941175 49.421875 7.8203125 C48.50792969 7.55089844 47.59398437 7.28148437 46.65234375 7.00390625 C45.69457031 6.71386719 44.73679688 6.42382812 43.75 6.125 C41.87072243 5.56198798 39.99053318 5.00200868 38.109375 4.4453125 C37.27374023 4.19281738 36.43810547 3.94032227 35.57714844 3.68017578 C30.56051754 2.35615781 25.68403634 1.85613454 20.5078125 1.68359375 C19.30898437 1.64169922 18.11015625 1.59980469 16.875 1.55664062 C15.6375 1.51732422 14.4 1.47800781 13.125 1.4375 C11.86429688 1.39431641 10.60359375 1.35113281 9.3046875 1.30664062 C6.20322577 1.20090898 3.10168855 1.09881429 0 1 C0 0.67 0 0.34 0 0 Z " fill="#59A0BE" transform="translate(202,21)"/>
<path d="M0 0 C0.99 0 1.98 0 3 0 C2.35553449 5.06365761 1.40400578 9.93471812 0.125 14.875 C-0.03613281 15.55046875 -0.19726562 16.2259375 -0.36328125 16.921875 C-0.8671875 18.8671875 -0.8671875 18.8671875 -2 22 C-2.99 22.33 -3.98 22.66 -5 23 C-4.44636539 14.97229811 -2.34312056 7.66145933 0 0 Z " fill="#57A2C0" transform="translate(240,38)"/>
<path d="M0 0 C1.32 0 2.64 0 4 0 C4.83910389 3.26938086 5.67028333 6.54072534 6.5 9.8125 C6.73847656 10.74126953 6.97695312 11.67003906 7.22265625 12.62695312 C7.44824219 13.51962891 7.67382812 14.41230469 7.90625 15.33203125 C8.11572266 16.15421143 8.32519531 16.9763916 8.54101562 17.82348633 C9 20 9 20 9 23 C8.01 23 7.02 23 6 23 C4.99325541 19.73120384 3.99577511 16.4596529 3 13.1875 C2.71382812 12.25873047 2.42765625 11.32996094 2.1328125 10.37304688 C1.86210937 9.48037109 1.59140625 8.58769531 1.3125 7.66796875 C1.06113281 6.84578857 0.80976563 6.0236084 0.55078125 5.17651367 C0 3 0 3 0 0 Z " fill="#4F9EC1" transform="translate(178,38)"/>
<path d="M0 0 C0 0.66 0 1.32 0 2 C-1.55780332 2.67756882 -3.12150096 3.34159457 -4.6875 4 C-5.99267578 4.556875 -5.99267578 4.556875 -7.32421875 5.125 C-10.0572002 6.01870488 -12.14700934 6.16449676 -15 6 C-15 7.65 -15 9.3 -15 11 C-15.33 11 -15.66 11 -16 11 C-16 9.02 -16 7.04 -16 5 C-16.66 5 -17.32 5 -18 5 C-18 7.64 -18 10.28 -18 13 C-18.99 13.33 -19.98 13.66 -21 14 C-20.34 10.7 -19.68 7.4 -19 4 C-16.58732675 3.132758 -14.17095531 2.28103064 -11.75 1.4375 C-11.06808594 1.19064453 -10.38617188 0.94378906 -9.68359375 0.68945312 C-3.41657839 -1.47053761 -3.41657839 -1.47053761 0 0 Z " fill="#71B2CE" transform="translate(244,254)"/>
<path d="M0 0 C0 1.32 0 2.64 0 4 C-2.5395837 4.67561372 -5.08118835 5.34065828 -7.625 6 C-8.33785156 6.19078125 -9.05070312 6.3815625 -9.78515625 6.578125 C-13.95848544 7.65017287 -17.65178751 8.21946814 -22 8 C-22 7.34 -22 6.68 -22 6 C-20.87980469 5.65066406 -19.75960938 5.30132812 -18.60546875 4.94140625 C-17.13280778 4.48178595 -15.66015179 4.0221497 -14.1875 3.5625 C-13.44951172 3.33240234 -12.71152344 3.10230469 -11.95117188 2.86523438 C-2.77411685 0 -2.77411685 0 0 0 Z " fill="#55A3C5" transform="translate(326,121)"/>
<path d="M0 0 C0.712771 0.09071777 1.42554199 0.18143555 2.15991211 0.27490234 C4.56693997 0.58656673 6.97099302 0.91584165 9.375 1.25 C10.31069824 1.37987305 11.24639648 1.50974609 12.21044922 1.64355469 C18.26856556 2.49018273 24.32302109 3.36060596 30.375 4.25 C30.375 4.58 30.375 4.91 30.375 5.25 C15.25251556 4.75999771 0.37326345 3.21829062 -14.625 1.25 C-14.625 0.92 -14.625 0.59 -14.625 0.25 C-9.488554 -0.67907292 -5.22751576 -0.68050501 0 0 Z " fill="#CCE6EE" transform="translate(305.625,202.75)"/>
<path d="M0 0 C10.56 0 21.12 0 32 0 C31.67 0.66 31.34 1.32 31 2 C24.76406277 3.61635493 15.04292199 6.021461 9 3 C7.62657169 2.9310528 6.24997898 2.91532292 4.875 2.9375 C2.956875 2.9684375 2.956875 2.9684375 1 3 C0.67 2.01 0.34 1.02 0 0 Z " fill="#4E9FC1" transform="translate(340,207)"/>
<path d="M0 0 C1.1653125 0.0721875 2.330625 0.144375 3.53125 0.21875 C17.02940445 1.00070628 30.48181571 1.11375997 44 1 C44 1.33 44 1.66 44 2 C43.2575 2.144375 42.515 2.28875 41.75 2.4375 C39.15115838 2.9198505 39.15115838 2.9198505 37.27636719 3.54272461 C34.08324945 4.18415635 31.08071235 3.99887873 27.828125 3.87890625 C27.1457074 3.85529526 26.46328979 3.83168427 25.76019287 3.80735779 C23.58989942 3.7310504 21.41999286 3.64688594 19.25 3.5625 C17.77475824 3.50924627 16.29949784 3.45650611 14.82421875 3.40429688 C11.21591088 3.2754805 7.6079079 3.13961806 4 3 C4 2.34 4 1.68 4 1 C2.68 0.67 1.36 0.34 0 0 Z " fill="#C8E4EE" transform="translate(314,208)"/>
<path d="M0 0 C-3.07790202 1.03774122 -6.16300246 2.05216917 -9.25 3.0625 C-10.12269531 3.35705078 -10.99539063 3.65160156 -11.89453125 3.95507812 C-12.73886719 4.22900391 -13.58320313 4.50292969 -14.453125 4.78515625 C-15.61569824 5.17006226 -15.61569824 5.17006226 -16.80175781 5.56274414 C-19.25949945 6.05161745 -20.64311691 5.77581252 -23 5 C-23.7425 4.814375 -24.485 4.62875 -25.25 4.4375 C-25.8275 4.293125 -26.405 4.14875 -27 4 C-25.87980469 3.65066406 -24.75960938 3.30132812 -23.60546875 2.94140625 C-22.13280778 2.48178595 -20.66015179 2.0221497 -19.1875 1.5625 C-18.44951172 1.33240234 -17.71152344 1.10230469 -16.95117188 0.86523438 C-10.14999605 -1.25820966 -6.80951865 -2.26983955 0 0 Z " fill="#6FB2CC" transform="translate(344,224)"/>
<path d="M0 0 C0.33 0 0.66 0 1 0 C1 7.59 1 15.18 1 23 C0.34 23 -0.32 23 -1 23 C-1.33 23.66 -1.66 24.32 -2 25 C-2.26213592 4.52427184 -2.26213592 4.52427184 0 0 Z " fill="#5BA7C3" transform="translate(211,230)"/>
<path d="M0 0 C2.23365902 2.23365902 2.56620855 2.94255425 3 6 C2.8108255 8.1960692 2.53178178 10.38535118 2.1875 12.5625 C2.01605469 13.69816406 1.84460938 14.83382812 1.66796875 16.00390625 C1 19 1 19 -1 22 C-2.51708428 7.40318907 -2.51708428 7.40318907 0 0 Z " fill="#98C4D0" transform="translate(213,221)"/>
<path d="M0 0 C-1.3510265 3.01015294 -2.86335687 5.11967466 -5.1875 7.453125 C-5.80367188 8.071875 -6.41984375 8.690625 -7.0546875 9.328125 C-8.01761719 10.27945313 -8.01761719 10.27945313 -9 11.25 C-9.64195312 11.8996875 -10.28390625 12.549375 -10.9453125 13.21875 C-11.86957031 14.13914062 -11.86957031 14.13914062 -12.8125 15.078125 C-13.37582031 15.63918945 -13.93914062 16.20025391 -14.51953125 16.77832031 C-16 18 -16 18 -18 18 C-16.6489735 14.98984706 -15.13664313 12.88032534 -12.8125 10.546875 C-12.19632812 9.928125 -11.58015625 9.309375 -10.9453125 8.671875 C-10.30335938 8.03765625 -9.66140625 7.4034375 -9 6.75 C-8.35804688 6.1003125 -7.71609375 5.450625 -7.0546875 4.78125 C-6.43851562 4.16765625 -5.82234375 3.5540625 -5.1875 2.921875 C-4.62417969 2.36081055 -4.06085938 1.79974609 -3.48046875 1.22167969 C-2 0 -2 0 0 0 Z " fill="#6EACBA" transform="translate(296,68)"/>
<path d="M0 0 C4.09416511 2.8994514 6.17980728 5.56625501 8.375 10.0625 C8.89835938 11.10535156 9.42171875 12.14820313 9.9609375 13.22265625 C11 16 11 16 10 19 C9.731875 18.43152344 9.46375 17.86304688 9.1875 17.27734375 C6.07928458 11.15293245 2.41909859 7.18198427 -3 3 C-2.01 2.01 -1.02 1.02 0 0 Z " fill="#DCEDF1" transform="translate(197,214)"/>
<path d="M0 0 C3.04332765 1.3584202 5.12309151 2.88463024 7.453125 5.2578125 C8.071875 5.88300781 8.690625 6.50820312 9.328125 7.15234375 C9.96234375 7.80332031 10.5965625 8.45429687 11.25 9.125 C11.8996875 9.78371094 12.549375 10.44242188 13.21875 11.12109375 C14.81711727 12.74296643 16.41061897 14.3693281 18 16 C17.01 16.33 16.02 16.66 15 17 C12.49195282 14.54976242 9.9949924 12.08852402 7.5 9.625 C6.78457031 8.92632812 6.06914062 8.22765625 5.33203125 7.5078125 C4.65527344 6.8375 3.97851562 6.1671875 3.28125 5.4765625 C2.65283203 4.85861816 2.02441406 4.24067383 1.37695312 3.60400391 C0 2 0 2 0 0 Z " fill="#66A8B8" transform="translate(126,69)"/>
<path d="M0 0 C1.45833333 0.4375 2.91666667 0.875 4.375 1.3125 C5.28765625 1.58449219 6.2003125 1.85648438 7.140625 2.13671875 C8.96767081 2.68832684 10.79107507 3.252244 12.609375 3.83203125 C17.7682884 5.45821047 22.61085363 6.50100497 28 7 C28 7.33 28 7.66 28 8 C21.32685454 9.32852095 16.94702945 8.46842113 10.625 6.125 C9.81933594 5.84269531 9.01367188 5.56039062 8.18359375 5.26953125 C2.57339286 3.28669643 2.57339286 3.28669643 0 2 C0 1.34 0 0.68 0 0 Z " fill="#96C0CF" transform="translate(23,198)"/>
<path d="M0 0 C-2.29032311 0.83719383 -4.58210957 1.6698929 -6.875 2.5 C-7.52597656 2.73847656 -8.17695313 2.97695313 -8.84765625 3.22265625 C-13.7734375 5 -13.7734375 5 -16 5 C-16.226875 5.639375 -16.45375 6.27875 -16.6875 6.9375 C-18 9 -18 9 -20.625 9.75 C-21.40875 9.8325 -22.1925 9.915 -23 10 C-23.66 9.01 -24.32 8.02 -25 7 C-21.59029681 5.62781327 -18.17130714 4.28046394 -14.75 2.9375 C-13.78191406 2.54755859 -12.81382812 2.15761719 -11.81640625 1.75585938 C-10.88183594 1.39169922 -9.94726562 1.02753906 -8.984375 0.65234375 C-8.12553711 0.31195068 -7.26669922 -0.02844238 -6.38183594 -0.37915039 C-3.80190439 -1.05163562 -2.48003405 -0.88608504 0 0 Z " fill="#5FA9C6" transform="translate(176,17)"/>
<path d="M0 0 C-0.33 0.99 -0.66 1.98 -1 3 C-7.93 3 -14.86 3 -22 3 C-22 2.67 -22 2.34 -22 2 C-14.58569409 0.16282685 -7.62314474 -0.23576736 0 0 Z " fill="#FCFEFA" transform="translate(167,198)"/>
<path d="M0 0 C0 0.99 0 1.98 0 3 C-1.76774419 3.53122363 -3.53934083 4.04964073 -5.3125 4.5625 C-6.29863281 4.85253906 -7.28476562 5.14257812 -8.30078125 5.44140625 C-11 6 -11 6 -14 5 C-15.33106622 4.65772583 -16.66400079 4.32248257 -18 4 C-15.94037148 3.32451422 -13.87715678 2.65995688 -11.8125 2 C-10.66394531 1.62875 -9.51539063 1.2575 -8.33203125 0.875 C-5.35679188 0.09369447 -3.04716104 -0.18363306 0 0 Z " fill="#62ABC7" transform="translate(412,199)"/>
<path d="M0 0 C0.66 0 1.32 0 2 0 C2.49230769 7.26153846 2.49230769 7.26153846 0 11 C-0.66 11.66 -1.32 12.32 -2 13 C-3.65 12.67 -5.3 12.34 -7 12 C-4.82575883 9.49962266 -3.26954202 8.56371414 0 8 C0 5.36 0 2.72 0 0 Z " fill="#409BC4" transform="translate(226,259)"/>
<path d="M0 0 C0.66 0.33 1.32 0.66 2 1 C-0.97 3.97 -0.97 3.97 -4 7 C-3.67 7.66 -3.34 8.32 -3 9 C-7.455 11.97 -7.455 11.97 -12 15 C-11.67 13.35 -11.34 11.7 -11 10 C-10.34 10 -9.68 10 -9 10 C-9 9.34 -9 8.68 -9 8 C-7.28515625 6.30859375 -7.28515625 6.30859375 -5.0625 4.4375 C-4.33160156 3.81746094 -3.60070312 3.19742188 -2.84765625 2.55859375 C-1.93306641 1.78708984 -1.93306641 1.78708984 -1 1 C-0.67 0.67 -0.34 0.34 0 0 Z " fill="#51A1C3" transform="translate(122,42)"/>
<path d="M0 0 C5.11365014 1.0681847 10.07227969 2.23107476 15 4 C14.67 4.66 14.34 5.32 14 6 C4.19156581 5.38029501 4.19156581 5.38029501 0 2 C0 1.34 0 0.68 0 0 Z " fill="#54A2C1" transform="translate(156,246)"/>
<path d="M0 0 C0 0.33 0 0.66 0 1 C-2.20826378 1.02722517 -4.41662638 1.04649729 -6.625 1.0625 C-7.85476562 1.07410156 -9.08453125 1.08570313 -10.3515625 1.09765625 C-13.67723791 1.00863924 -16.74047588 0.63686087 -20 0 C-20 -0.33 -20 -0.66 -20 -1 C-5.86335677 -2.75922671 -5.86335677 -2.75922671 0 0 Z " fill="#8EC0D2" transform="translate(97,207)"/>
<path d="M0 0 C1.41702513 0.14230808 2.8336096 0.28900746 4.25 0.4375 C5.43335937 0.55931641 5.43335937 0.55931641 6.640625 0.68359375 C8.82364639 0.97634993 10.8773182 1.42064419 13 2 C13 2.99 13 3.98 13 5 C8.71093278 4.49540386 4.88701855 3.94350927 1 2 C0.67 1.34 0.34 0.68 0 0 Z " fill="#52A2C0" transform="translate(105,125)"/>
<path d="M0 0 C-0.33 0.66 -0.66 1.32 -1 2 C-1.99 2.33 -2.98 2.66 -4 3 C-4.33 4.65 -4.66 6.3 -5 8 C-5.33 8 -5.66 8 -6 8 C-6 6.02 -6 4.04 -6 2 C-6.66 2 -7.32 2 -8 2 C-8 4.64 -8 7.28 -8 10 C-8.99 10.33 -9.98 10.66 -11 11 C-10.34 7.7 -9.68 4.4 -9 1 C-5.8035914 -0.06546953 -3.34252724 -0.07427838 0 0 Z " fill="#60A8C4" transform="translate(234,257)"/>
<path d="M0 0 C-2.36503817 2.36503817 -3.64036042 2.54921059 -6.875 3.1875 C-8.17050781 3.45626953 -8.17050781 3.45626953 -9.4921875 3.73046875 C-11.99246997 3.9991907 -13.63055452 3.7769577 -16 3 C-10.21782606 -0.05498079 -6.4410036 -1.64451156 0 0 Z " fill="#54A4C2" transform="translate(353,220)"/>
<path d="M0 0 C-4.54428546 3.02952364 -9.539338 5.25108796 -15.0625 4.6875 C-15.701875 4.460625 -16.34125 4.23375 -17 4 C-12.8310355 -0.1689645 -5.63804533 -0.28913053 0 0 Z " fill="#469BBD" transform="translate(380,211)"/>
<path d="M0 0 C-10.37357631 4.40774487 -10.37357631 4.40774487 -16 5 C-16 4.34 -16 3.68 -16 3 C-5.78382511 -1.60729456 -5.78382511 -1.60729456 0 0 Z " fill="#449BBF" transform="translate(402,204)"/>
<path d="M0 0 C4.00972202 3.67557852 6.45335415 7.18966896 9 12 C8.01 12 7.02 12 6 12 C4.39453125 10.13671875 4.39453125 10.13671875 2.8125 7.6875 C2.28269531 6.88699219 1.75289062 6.08648437 1.20703125 5.26171875 C0 3 0 3 0 0 Z " fill="#646464" transform="translate(177,103)"/>
<path d="M0 0 C0 3.93235469 -1.54945341 5.02964049 -4 8 C-4.33 8.99 -4.66 9.98 -5 11 C-6.98 11.33 -8.96 11.66 -11 12 C-7.49102731 7.81576108 -3.91939465 3.80411834 0 0 Z " fill="#E1EFF7" transform="translate(295,70)"/>
<path d="M0 0 C3.92556076 -0.30788712 6.3957736 -0.30854114 9.9375 1.5 C12.91721513 5.11177591 12.38243285 7.41080579 12 12 C11.67 12 11.34 12 11 12 C10.87625 11.030625 10.7525 10.06125 10.625 9.0625 C10.41875 8.051875 10.2125 7.04125 10 6 C9.34 5.67 8.68 5.34 8 5 C8 4.01 8 3.02 8 2 C7.05125 2.04125 6.1025 2.0825 5.125 2.125 C2 2 2 2 0 0 Z " fill="#54A0C1" transform="translate(207,146)"/>
<path d="M0 0 C0 0.99 0 1.98 0 3 C-3.82989106 4.80230168 -6.78121808 5.19622241 -11 5 C-8.22920113 1.19015156 -4.37131855 0.93159248 0 0 Z " fill="#F3F9F7" transform="translate(363,211)"/>
<path d="M0 0 C3.97497544 3.40712181 5.86793788 7.32760855 8 12 C7.01 12 6.02 12 5 12 C1.85092515 8.10996636 0.473492 4.97166604 0 0 Z " fill="#717171" transform="translate(170,91)"/>
<path d="M0 0 C0 0.66 0 1.32 0 2 C-1.76586761 2.5576424 -3.53795256 3.09562787 -5.3125 3.625 C-6.29863281 3.92664063 -7.28476562 4.22828125 -8.30078125 4.5390625 C-11 5 -11 5 -14 3 C-12.4188708 2.49307308 -10.83498617 1.99473557 -9.25 1.5 C-7.92742187 1.08234375 -7.92742187 1.08234375 -6.578125 0.65625 C-4 0 -4 0 0 0 Z " fill="#CEE6EC" transform="translate(385,205)"/>
<path d="M0 0 C1.79158489 -0.02696365 3.58328473 -0.04637917 5.375 -0.0625 C6.37273437 -0.07410156 7.37046875 -0.08570313 8.3984375 -0.09765625 C11 0 11 0 13 1 C13 1.99 13 2.98 13 4 C8.71 3.01 4.42 2.02 0 1 C0 0.67 0 0.34 0 0 Z " fill="#4E9CBB" transform="translate(313,182)"/>
<path d="M0 0 C0 0.66 0 1.32 0 2 C-2.97 2.66 -5.94 3.32 -9 4 C-9 3.01 -9 2.02 -9 1 C-6.04335481 -0.4783226 -3.25770263 -0.06032783 0 0 Z " fill="#56A5C3" transform="translate(118,178)"/>
<path d="M0 0 C-0.804375 0.45375 -1.60875 0.9075 -2.4375 1.375 C-5.08856572 2.74725665 -5.08856572 2.74725665 -6 5 C-8.97 5 -11.94 5 -15 5 C-12.30932731 3.20621821 -9.91421743 2.02686042 -6.9375 0.8125 C-5.62072266 0.26529297 -5.62072266 0.26529297 -4.27734375 -0.29296875 C-2 -1 -2 -1 0 0 Z " fill="#DCEFF1" transform="translate(170,29)"/>
<path d="M0 0 C0 0.66 0 1.32 0 2 C-1.76414623 2.72482748 -3.53662904 3.42939296 -5.3125 4.125 C-6.79169922 4.71667969 -6.79169922 4.71667969 -8.30078125 5.3203125 C-9.19152344 5.54460937 -10.08226562 5.76890625 -11 6 C-11.99 5.34 -12.98 4.68 -14 4 C-12.23141309 3.32739649 -10.46003984 2.66211605 -8.6875 2 C-7.70136719 1.62875 -6.71523438 1.2575 -5.69921875 0.875 C-3 0 -3 0 0 0 Z " fill="#AFCED3" transform="translate(399,198)"/>
<path d="M0 0 C-3.63 0.66 -7.26 1.32 -11 2 C-11 1.67 -11 1.34 -11 1 C-12.65 0.67 -14.3 0.34 -16 0 C-11.1192623 -3.4571892 -5.35970444 -1.33992611 0 0 Z " fill="#81BBD1" transform="translate(116,182)"/>
<path d="M0 0 C1.32 0 2.64 0 4 0 C4.6875 2.75 4.6875 2.75 5 6 C4.01 7.32 3.02 8.64 2 10 C1.34 6.7 0.68 3.4 0 0 Z " fill="#74B3CD" transform="translate(178,38)"/>
<path d="M0 0 C6.40141012 -0.51211281 9.98010898 -0.11888494 15 4 C11.8568669 5.57156655 9.634536 4.11705576 6.375 3.0625 C4.59222656 2.49208984 4.59222656 2.49208984 2.7734375 1.91015625 C1.85820312 1.60980469 0.94296875 1.30945313 0 1 C0 0.67 0 0.34 0 0 Z " fill="#65A8C5" transform="translate(243,25)"/>
<path d="M0 0 C3.96 0.33 7.92 0.66 12 1 C12 1.66 12 2.32 12 3 C3.42857143 3.14285714 3.42857143 3.14285714 0 2 C0 1.34 0 0.68 0 0 Z " fill="#389BBE" transform="translate(202,271)"/>
<path d="M0 0 C4.8333472 -0.08333357 9.23692563 0.04738513 14 1 C10.93753253 2.78409802 8.77920727 3.22880021 5.25 3.125 C4.45078125 3.10695312 3.6515625 3.08890625 2.828125 3.0703125 C2.22484375 3.04710937 1.6215625 3.02390625 1 3 C0.67 2.01 0.34 1.02 0 0 Z " fill="#99C8D8" transform="translate(277,202)"/>
<path d="M0 0 C0 1.32 0 2.64 0 4 C-3.3 3.67 -6.6 3.34 -10 3 C-4 0 -4 0 0 0 Z " fill="#69AFCA" transform="translate(326,121)"/>
<path d="M0 0 C4.39158329 1.4638611 4.87947433 3.97831338 7 8 C6.34 8.66 5.68 9.32 5 10 C4.15801693 8.90241493 3.32669329 7.79664683 2.5 6.6875 C2.0359375 6.07261719 1.571875 5.45773438 1.09375 4.82421875 C0 3 0 3 0 0 Z " fill="#757575" transform="translate(147,59)"/>
<path d="M0 0 C2.97 0.495 2.97 0.495 6 1 C5.67 1.99 5.34 2.98 5 4 C6.32 4.33 7.64 4.66 9 5 C8.01 5.495 8.01 5.495 7 6 C4.64018187 5.06421005 2.30368736 4.06652192 0 3 C0 2.01 0 1.02 0 0 Z " fill="#72B3CD" transform="translate(10,199)"/>
<path d="M0 0 C2.475 0.99 2.475 0.99 5 2 C4.67 4.64 4.34 7.28 4 10 C3.34 9.67 2.68 9.34 2 9 C1.3671875 6.93359375 1.3671875 6.93359375 0.875 4.4375 C0.70742187 3.61121094 0.53984375 2.78492188 0.3671875 1.93359375 C0.24601563 1.29550781 0.12484375 0.65742187 0 0 Z " fill="#DFEFF0" transform="translate(185,52)"/>
<path d="M0 0 C2.72138795 3.17495261 4.82820425 5.95197831 6 10 C5.67 10.99 5.34 11.98 5 13 C3.96953278 11.21385682 2.95086764 9.42089982 1.9375 7.625 C1.36902344 6.62726563 0.80054688 5.62953125 0.21484375 4.6015625 C-0.18605469 3.74304688 -0.58695313 2.88453125 -1 2 C-0.67 1.34 -0.34 0.68 0 0 Z " fill="#D8EDF3" transform="translate(202,213)"/>
<path d="M0 0 C0 0.33 0 0.66 0 1 C-0.7425 1.144375 -1.485 1.28875 -2.25 1.4375 C-4.87078954 1.91152838 -4.87078954 1.91152838 -6.8125 2.625 C-10.29656071 3.22226755 -13.51556289 2.52266557 -17 2 C-17 1.67 -17 1.34 -17 1 C-11.27959989 0.1679418 -5.77759884 -0.12036664 0 0 Z " fill="#8BC9DC" transform="translate(358,209)"/>
<path d="M0 0 C1.41623216 -0.05447047 2.83308191 -0.09300508 4.25 -0.125 C5.03890625 -0.14820313 5.8278125 -0.17140625 6.640625 -0.1953125 C9 0 9 0 13 2 C9.37 2.33 5.74 2.66 2 3 C1.34 2.01 0.68 1.02 0 0 Z " fill="#85C4D6" transform="translate(65,209)"/>
<path d="M0 0 C0 0.66 0 1.32 0 2 C-2.64 2.33 -5.28 2.66 -8 3 C-7.67 2.01 -7.34 1.02 -7 0 C-3.86650268 -1.04449911 -3.01031744 -0.93423645 0 0 Z " fill="#54A2C3" transform="translate(284,241)"/>
<path d="M0 0 C2.64 0 5.28 0 8 0 C5.65085508 2.34914492 4.04320554 2.73140357 0.875 3.625 C-0.49011719 4.01558594 -0.49011719 4.01558594 -1.8828125 4.4140625 C-2.58148438 4.60742188 -3.28015625 4.80078125 -4 5 C-4 4.34 -4 3.68 -4 3 C-3.01 3 -2.02 3 -1 3 C-0.67 2.01 -0.34 1.02 0 0 Z " fill="#53A3C5" transform="translate(155,30)"/>
<path d="M0 0 C1.485 0.99 1.485 0.99 3 2 C2.67 2.66 2.34 3.32 2 4 C2.99 4.33 3.98 4.66 5 5 C5 6.98 5 8.96 5 11 C2.03947516 7.63576723 1.07710178 4.30840713 0 0 Z " fill="#6EAFC9" transform="translate(331,99)"/>
<path d="M0 0 C3.7952131 1.49097658 5.61042731 3.75700849 8 7 C5 7 5 7 2.3125 4.625 C0 2 0 2 0 0 Z " fill="#77ACBF" transform="translate(126,69)"/>
<path d="M0 0 C0.33 0 0.66 0 1 0 C1 4.29 1 8.58 1 13 C-0.32 12.67 -1.64 12.34 -3 12 C-2.67 11.34 -2.34 10.68 -2 10 C-1.34 10 -0.68 10 0 10 C0 6.7 0 3.4 0 0 Z " fill="#C8E2ED" transform="translate(212,243)"/>
<path d="M0 0 C2.36574234 3.5486135 2.10865265 4.5764525 1.625 8.6875 C1.51414063 9.68136719 1.40328125 10.67523438 1.2890625 11.69921875 C1.19367188 12.45847656 1.09828125 13.21773437 1 14 C0.67 14 0.34 14 0 14 C-0.19532961 12.2300132 -0.38098882 10.45895721 -0.5625 8.6875 C-0.66691406 7.70136719 -0.77132812 6.71523437 -0.87890625 5.69921875 C-1 3 -1 3 0 0 Z " fill="#81BBCB" transform="translate(209,227)"/>
<path d="M0 0 C2.97 0 5.94 0 9 0 C9 0.99 9 1.98 9 3 C6.36 3 3.72 3 1 3 C0.67 2.01 0.34 1.02 0 0 Z " fill="#5CA9C1" transform="translate(340,207)"/>
<path d="M0 0 C0 1.98 0 3.96 0 6 C-0.33 6 -0.66 6 -1 6 C-1 4.35 -1 2.7 -1 1 C-1.928125 1.20625 -2.85625 1.4125 -3.8125 1.625 C-7 2 -7 2 -10 0 C-6.42355152 -1.2380014 -3.66305234 -0.74926071 0 0 Z " fill="#72B1CA" transform="translate(197,258)"/>
<path d="M0 0 C3.3 0 6.6 0 10 0 C10.33 1.32 10.66 2.64 11 4 C7.37 3.01 3.74 2.02 0 1 C0 0.67 0 0.34 0 0 Z " fill="#83B8CE" transform="translate(164,251)"/>
<path d="M0 0 C2.64 0 5.28 0 8 0 C8 0.66 8 1.32 8 2 C8.99 2.33 9.98 2.66 11 3 C9 4 9 4 6.8359375 3.44140625 C6.02382812 3.15136719 5.21171875 2.86132812 4.375 2.5625 C3.55773437 2.27503906 2.74046875 1.98757812 1.8984375 1.69140625 C1.27195313 1.46324219 0.64546875 1.23507813 0 1 C0 0.67 0 0.34 0 0 Z " fill="#D8EDF4" transform="translate(153,244)"/>
<path d="M0 0 C1.32 0.66 2.64 1.32 4 2 C3.34 2.66 2.68 3.32 2 4 C-0.625 3.625 -0.625 3.625 -3 3 C-2.01 2.01 -1.02 1.02 0 0 Z " fill="#4E9EC0" transform="translate(222,268)"/>
<path d="M0 0 C-0.33 0.66 -0.66 1.32 -1 2 C-3.64 1.34 -6.28 0.68 -9 0 C-9 -0.33 -9 -0.66 -9 -1 C-5.22102349 -2.0497157 -3.35080929 -2.10976881 0 0 Z " fill="#E8F6F4" transform="translate(144,239)"/>
<path d="M0 0 C1.32 0.33 2.64 0.66 4 1 C3.34 3.31 2.68 5.62 2 8 C1.67 8 1.34 8 1 8 C0.67 5.36 0.34 2.72 0 0 Z " fill="#E4F1F7" transform="translate(209,222)"/>
<path d="M0 0 C1.70884005 1.62339805 3.37446717 3.29319053 5 5 C5 5.66 5 6.32 5 7 C2.525 6.01 2.525 6.01 0 5 C0 3.33333333 0 1.66666667 0 0 Z " fill="#C7C7C7" transform="translate(197,136)"/>
<path d="M0 0 C0 0.99 0 1.98 0 3 C-3.3 3 -6.6 3 -10 3 C-6.84916414 -0.15083586 -4.41812253 0 0 0 Z " fill="#C8E5EF" transform="translate(325,125)"/>
<path d="M0 0 C2.9719385 1.12451727 5.33440687 2.22293791 8 4 C5.36 3.67 2.72 3.34 0 3 C0 2.01 0 1.02 0 0 Z " fill="#489DBF" transform="translate(114,232)"/>
<path d="M0 0 C-0.99 1.485 -0.99 1.485 -2 3 C-5.125 3.1875 -5.125 3.1875 -8 3 C-5.53387212 -0.1151089 -3.89156016 -0.31553191 0 0 Z " fill="#4D9FC0" transform="translate(333,225)"/>
<path d="M0 0 C0.66 0.33 1.32 0.66 2 1 C2 1.99 2 2.98 2 4 C-0.31 4 -2.62 4 -5 4 C-3 1 -3 1 0 0 Z " fill="#7DBACE" transform="translate(339,206)"/>
<path d="M0 0 C-0.33 0.99 -0.66 1.98 -1 3 C-3.97 3 -6.94 3 -10 3 C-10 2.67 -10 2.34 -10 2 C-3.375 0 -3.375 0 0 0 Z " fill="#FAFCF9" transform="translate(178,206)"/>
<path d="M0 0 C2.89932357 2.39509338 3.50168276 4.31245243 4 8 C3.34 8 2.68 8 2 8 C-0.1519437 4.77208445 -0.20086443 3.71599191 0 0 Z " fill="#5EA7C3" transform="translate(342,102)"/>
<path d="M0 0 C0.66 0.33 1.32 0.66 2 1 C-0.77280706 4.08089673 -3.06326356 5.68775452 -7 7 C-4.66666667 4.66666667 -2.33333333 2.33333333 0 0 Z " fill="#DAF1F6" transform="translate(136,44)"/>
</svg>
